<?xml version="1.0" encoding="utf-8"?>
<!-- Generator: Adobe Illustrator 23.0.4, SVG Export Plug-In . SVG Version: 6.00 Build 0)  -->
<svg version="1.1" id="Layer_1" xmlns="http://www.w3.org/2000/svg" xmlns:xlink="http://www.w3.org/1999/xlink" x="0px" y="0px"
	 viewBox="0 0 186.6 80.7" style="enable-background:new 0 0 186.6 80.7;" xml:space="preserve">
<style type="text/css">
	.st0{fill:#FFFFFF;}
</style>
<g>
	<path class="st0" d="M24.1,41.8c-2.1,1.4-4.2,2.9-7,2.5c-1.2-0.2-2.7-0.6-2.9-1.9c-0.8-4.8-1.1-10,0.8-14.4
		c-1.7-0.1-2.2,1.1-2.4,2.5c-0.9,4.4,0.1,8.7,0.4,13.1c0,0.4,0.3,1,0.7,1.2c2.2,0.9,2.8,2.7,2.9,4.8c0,0.3,0.2,0.7,0.5,0.9
		c0.8,0.7,0.8,1.5,0.7,2.4c-0.6,4-1.3,7.9-2.3,11.8c-0.6,2.2-1.6,3.5-4,3.8C8.9,69,6.8,69,4.9,71.3c-0.7,0.9-2,1.3-2.8,1.6
		c0.1,0,0.5,0,0.5,0l0,0c1.6,0,1.9,0.2,2.9,0.2c0-0.1-0.1-0.2-0.1-0.3c0-0.8,0.9-1.1,1.6-1.4c2.2-1.1,4.6-1,7-1.2
		c1.3-0.1,2.1-1.2,2.4-2.5c1.1-4.1,2.2-8.2,2.6-12.5c0.3-2.6,0.7-5.3-0.6-7.8c-0.6-1.1-0.2-2,1.1-2.5c2.6-0.9,4.9-2.3,6.8-4.4
		C25.4,40.8,24.8,41.4,24.1,41.8z"/>
	<path class="st0" d="M24.1,38.2c-1.2-0.1-1.2-0.9-0.4-1.9c-3.2,0.8-1.8-2.1-3.2-2.7c-0.5,1.9,0.5,3.9-0.4,5.7
		c-0.2,0.4,0.4,0.6,0.8,0.8s0.6,0.1,0.9-0.3c1.2-1.4,3.6-1,4.5,0.7c0.8-0.6,1.8-0.7,3.3-0.7C27.5,38.9,25.8,38.4,24.1,38.2z"/>
	<path class="st0" d="M40,72.6c-0.2,0-0.4,0-0.7,0c-0.1,0-0.3-0.1-0.4-0.2c-2.3-2.3-5.3-2.4-8.3-2.8c-1.3-0.2-2.1-1.3-1.7-2.6
		c1.5-5.6,1.7-11.6,4.3-17c1.3-2.6,1.6-5.8,1.8-8.8c0-0.1,0-0.1,0.1-0.1c2.9-2.2,2.9-4.8,1.5-7.4c-1.7-3-4.1-5.1-7.4-6.3
		c-1-0.3-2.1-0.7-2.3-1.7c-0.1-0.8-0.4-1.3-1-1.6c-0.5-0.2-1-0.7-0.6-1.3c0.4-0.6,1-0.1,1.4,0.2c1.4,1.1,3.1,1.1,4.6,1.7
		c1.1,0.4,1.6-0.1,1.6-1.1c0-0.9-0.1-1.8-0.2-2.7c-0.2-1.4,0.4-2.1,1.8-2.4c1.3-0.2,2.7-0.6,4-0.9c1.6-0.4,3.1-0.9,4.3-2.1
		c1.4-1.3,1.4-2.2-0.3-3.2c-0.6-0.4-1.3-0.7-1.9-0.9c-2.3-1.1-4.8-1.8-6.9-3.2c-0.8-0.4-1.7-1-2.1-2.2c3.4-0.1,6.1,2,9.5,2.2
		c-1.7-1.8-3.7-2.5-5.5-3.3c-3.8-1.8-7.7-3.3-12.1-3c-4.9,0.3-7.1,2.4-7.3,7.2c0,0.4,0,0.8-0.1,1.2c0,0.5-0.2,1-0.7,1.2
		c-2.8,1.2-2.7,3.5-2.4,5.9c0.2,1.7,1.3,2.8,3.1,2.8c1.3,0,1.5,0.6,1.3,1.7C16.9,24,15.9,26,15,28.1c1.3,0.3,2.6,0.6,3.9,0.8
		c-1.2-0.9-2-1.8-1.6-3.1c0.8-2.8,0.5-4,0.8-7c-2.9,1.6-4.2-0.7-4.4-4.1v-0.1c0-1.7,1.6-2.5,3.1-2c0.8,0.3,1.7,0.6,2.9,1
		c-0.5-0.8-1.4-1.8-1.7-2.2c-2.3-3.7-0.3-7.7,4-8.4c2.4-0.4,5.2,0,7.6,0.4c2.5,0.4,7.1,2.1,9.1,3.7C37.5,7,34,5.7,32.9,5.5
		c-0.6-0.1-1.2-0.2-1.6,0.5c-0.3,0.6,0.1,1,0.5,1.4c1.4,1.5,2.8,2.7,4.8,3.5c1.3,0.6,4.5,1.7,5.5,2.6c1.4,1.3,0,1.9-1.7,2.7
		c-2.1,0.9-4.5,1.1-6.7,1.5c-1.3,0.2-2.3,1.3-2.4,2.6c0,0.5,0,0.9,0,1.4c0,1.5-0.7,2-2,1.5c-1.6-0.6-2.9-0.5-4.1-1.8
		c-0.4-0.4-1.1-1.6-1.7-1.1c-0.5,0.4-0.5,0.9-0.3,1.4c0.4,0.9,0.7,1.8,1.1,2.6c1,2.4,1,2.4-1.6,2.7c-0.4,0.1-1.1-0.1-1.1,0.6
		s0.7,0.7,1.2,0.7c0.9-0.1,1.9-0.2,2.8-0.4c1-0.2,1.9-0.1,2.8,0.3c2.9,1.3,5.6,2.9,7,5.8c0.7,1.4,1.6,3.3,0.6,4.7
		c-1,1.5-2.5,2.6-5,1.5c0,0-0.1,0.1-0.2,0.2c2.2,1.4,3.2,1.4,2.8,4.2c-0.4,2.9-2.4,5.5-2.5,8.5c-0.2,3.3-0.7,6.6-2.1,9.7
		c-2.4,5.5-3.2,6.7-0.4,7.4c1.7,0.4,3.4,0.7,5,1.2c1,0.3,3.6,0.5,2.5,2.2c-0.2,0.3,0,0.7,0.4,0.7c0.6,0,1.3,0.1,2,0
		c1.7,0,3.3-0.1,5-0.1c-0.1-0.1-0.2-0.2-0.3-0.3C42.3,73.1,41.2,72.6,40,72.6z"/>
	<path class="st0" d="M24.5,53.1c-0.1,0.6-0.3,1.5-0.6,2.5c-1.7,5.4-2.2,11.1-5,16.2c-0.5,0.9,0,1,0.7,1c0.9,0,0.7-0.8,0.9-1.4
		c1.8-5.4,3-10.9,4.1-16.5c0.3-1.4,0.3-3.3,2.3-2.6c0.3,0.1,1-0.4,0.4-0.8c-0.7-0.5-1.7-0.3-2.6-0.1C24,51.6,24.5,52.2,24.5,53.1z"
		/>
</g>
<g>
	<path class="st0" d="M53.6,49.2l2.7-17.8c0.2-1.6,1.6-2.8,3.2-2.8h0.9l-4,25.3h-6l-4-25.3h0.9c1.8,0,3.4,1.3,3.6,3.1L53.6,49.2z"/>
	<path class="st0" d="M65.4,53.8h-0.2V28.6l0,0c2.2,0,4,1.8,4,4v2.2c0,2.5,2,4.6,4.6,4.6l0,0v-6.7c0-2.3,1.8-4.1,4.1-4.1l0,0v25.3
		l0,0c-2.3,0-4.1-1.8-4.1-4.1v-2.2c0-2.5-2-4.6-4.6-4.6l0,0v7C69.2,52.1,67.5,53.8,65.4,53.8z"/>
	<path class="st0" d="M97.8,28.3c4,0,5.9,2.3,5.9,6.4v0.8h-3.8v-1c0-1.8-0.7-2.5-2-2.5s-2,0.6-2,2.5c0,5.2,7.9,6.2,7.9,13.4
		c0,4.1-2,6.4-6,6.4s-6-2.3-6-6.4v-1.6h2c1,0,1.8,0.8,1.8,1.8l0,0c0,1.8,0.8,2.5,2.1,2.5c1.3,0,2.1-0.6,2.1-2.5
		c0-5.2-7.9-6.2-7.9-13.4C91.8,30.5,93.8,28.3,97.8,28.3z"/>
	<path class="st0" d="M109.6,28.6h8.8c1,0,1.8,0.8,1.8,1.8l0,0c0,1-0.8,1.8-1.8,1.8h-0.6c-1,0-1.8,0.8-1.8,1.8v18
		c0,1-0.8,1.8-1.8,1.8h-0.4c-1,0-1.8-0.8-1.8-1.8V34c0-1-0.8-1.8-1.8-1.8h-0.6c-1,0-1.8-0.8-1.8-1.8l0,0
		C107.8,29.4,108.6,28.6,109.6,28.6z"/>
	<path class="st0" d="M126.9,28.6c1.1,0,1.9,0.9,1.9,1.9v17.6c0,1.8,0.8,2.5,2.1,2.5s2.1-0.6,2.1-2.5V30.5c0-1.1,0.9-1.9,1.9-1.9
		l0,0c1.1,0,1.9,0.9,1.9,1.9v17.3c0,4.1-2.1,6.4-6,6.4s-6-2.3-6-6.4V30.5c0-1.1,0.9-1.9,1.9-1.9H126.9z"/>
	<path class="st0" d="M142.4,31.2c0-1.5,1.2-2.6,2.6-2.6h3.7c4.1,0,6,2.2,6,6.2v12.8c0,4.1-1.9,6.2-6,6.2h-6.4L142.4,31.2
		L142.4,31.2z M146.4,32.2v18.1h2.3c1.3,0,2.1-0.6,2.1-2.5V34.6c0-1.8-0.8-2.5-2.1-2.5h-2.3V32.2z"/>
	<path class="st0" d="M162.4,28.6L162.4,28.6c1.1,0,2,0.9,2,2v21.2c0,1.1-0.9,2-2,2l0,0c-1.1,0-2-0.9-2-2V30.6
		C160.4,29.5,161.3,28.6,162.4,28.6z"/>
	<path class="st0" d="M169.8,34.6c0-4.1,2.2-6.4,6.1-6.4c4,0,6.1,2.3,6.1,6.4v13.1c0,4.1-2.2,6.4-6.1,6.4c-4,0-6.1-2.3-6.1-6.4V34.6
		z M173.9,48c0,1.8,0.8,2.5,2.1,2.5s2.1-0.7,2.1-2.5V34.4c0-1.8-0.8-2.5-2.1-2.5s-2.1,0.6-2.1,2.5V48z"/>
</g>
<g>
	<path class="st0" d="M91.8,59.8l2.6,10.5L97,59.8h0.3l-2.6,10.8h-0.5l-2.7-10.8H91.8z"/>
	<path class="st0" d="M102.1,64.9v0.3h-3.2v5h3.8v0.3h-4.2V59.8h4.2v0.3h-3.8V65L102.1,64.9L102.1,64.9z"/>
	<path class="st0" d="M106.1,59.8c1.6,0,2.1,0.8,2.1,2.2v0.7c0,1.2-0.3,1.9-1.6,2.1c1.3,0.2,1.8,1.1,1.8,2.3v1
		c0,1.5-0.7,2.5-2.3,2.5h-2.2V59.8H106.1z M105.7,64.7c1.5,0,2.2-0.4,2.2-1.9V62c0-1.3-0.4-1.9-1.8-1.9h-1.9v4.6H105.7z M106.2,70.3
		c1.4,0,2-0.8,2-2.2v-1c0-1.6-0.8-2.1-2.3-2.1h-1.6v5.3C104.3,70.3,106.2,70.3,106.2,70.3z"/>
	<path class="st0" d="M116.7,62.4v0.2h-0.3v-0.2c0-1.3-0.5-2.4-1.9-2.4s-1.9,1.1-1.9,2.4c0,2.8,4.2,2.7,4.2,5.6
		c0,1.5-0.6,2.7-2.3,2.7c-1.7,0-2.3-1.2-2.3-2.7v-0.5h0.3V68c0,1.3,0.5,2.4,2,2.4c1.4,0,2-1.1,2-2.4c0-2.7-4.2-2.6-4.2-5.6
		c0-1.6,0.7-2.7,2.3-2.7C116.1,59.7,116.7,60.9,116.7,62.4z"/>
	<path class="st0" d="M120,70.6V60.1h-2.4v-0.3h5.1v0.3h-2.4v10.5H120z"/>
	<path class="st0" d="M124,67.9c0,1.3,0.5,2.4,1.9,2.4c1.5,0,1.9-1.1,1.9-2.4v-8.2h0.3v8.2c0,1.5-0.6,2.8-2.3,2.8
		c-1.7,0-2.3-1.3-2.3-2.8v-8.2h0.3v8.2H124z"/>
	<path class="st0" d="M131.7,59.8c1.7,0,2.4,1.2,2.4,2.7v5.4c0,1.5-0.7,2.7-2.4,2.7h-2.3V59.8H131.7z M131.7,70.3c1.5,0,2-1,2-2.4
		v-5.5c0-1.4-0.6-2.4-2-2.4h-1.9v10.2h1.9V70.3z"/>
	<path class="st0" d="M135.7,59.8v10.8h-0.3V59.8H135.7z M135.7,57.9v1.2h-0.3v-1.2H135.7z"/>
	<path class="st0" d="M136.9,62.4c0-1.5,0.6-2.7,2.3-2.7s2.4,1.2,2.4,2.7v5.5c0,1.5-0.7,2.7-2.4,2.7s-2.3-1.2-2.3-2.7V62.4z
		 M137.3,67.9c0,1.3,0.5,2.4,2,2.4s2-1.1,2-2.4v-5.5c0-1.3-0.5-2.4-2-2.4s-2,1.1-2,2.4V67.9z"/>
	<path class="st0" d="M146.2,68l-0.6,2.6h-0.3l2.7-10.9h0.5l2.7,10.9h-0.3l-0.6-2.6H146.2z M146.3,67.7h3.8l-1.9-7.6L146.3,67.7z"/>
	<path class="st0" d="M156.9,62.4v0.7h-0.3v-0.7c0-1.3-0.5-2.4-1.9-2.4c-1.5,0-2,1.1-2,2.4v5.5c0,1.3,0.5,2.4,2,2.4
		c1.4,0,1.9-1.1,1.9-2.4v-2.5h-1.7v-0.3h2.1v2.8c0,1.5-0.6,2.7-2.3,2.7s-2.3-1.2-2.3-2.7v-5.5c0-1.5,0.6-2.7,2.3-2.7
		C156.3,59.7,156.9,60.9,156.9,62.4z"/>
	<path class="st0" d="M161.7,64.9v0.3h-3.2v5h3.8v0.3h-4.2V59.8h4.2v0.3h-3.8V65L161.7,64.9L161.7,64.9z"/>
	<path class="st0" d="M163.9,70.6h-0.3V59.8h0.5l3.9,10.1V59.8h0.3v10.8h-0.4L164,60.3v10.3H163.9z"/>
	<path class="st0" d="M174.1,62.4v0.8h-0.3v-0.9c0-1.3-0.5-2.4-1.9-2.4c-1.5,0-2,1.1-2,2.4v5.5c0,1.3,0.5,2.4,2,2.4
		c1.4,0,1.9-1.1,1.9-2.4v-1.2h0.3v1.2c0,1.5-0.6,2.7-2.3,2.7s-2.3-1.2-2.3-2.7v-5.5c0-1.5,0.6-2.7,2.3-2.7
		C173.4,59.7,174.1,60.9,174.1,62.4z"/>
	<path class="st0" d="M177.6,66.2l-2.6-6.5h0.3l2.4,6l2.4-6h0.4l-2.6,6.5v4.4h-0.3L177.6,66.2L177.6,66.2z"/>
</g>
<image style="overflow:visible;" width="1256" height="742" xlink:href="../../../../Screen Shot 2019-06-19 at 12.13.37 AM.png"  transform="matrix(0.5 0 0 0.5 -673.9357 -80.4436)">
</image>
</svg>
